HIERARCHY
ROOT Hips
{
	OFFSET 0.000000 88.474243 0.000000
	CHANNELS 6 Xposition Yposition Zposition Zrotation Yrotation Xrotation 
	JOINT Hips_Spine
	{
		OFFSET 0.000000 0.000000 0.000000
		CHANNELS 3 Zrotation Yrotation Xrotation
		JOINT Spine
		{
			OFFSET 0.005100 8.711998 -0.691000
			CHANNELS 3 Zrotation Yrotation Xrotation
			JOINT Spine1
			{
				OFFSET -0.009200 8.660301 -1.275000
				CHANNELS 3 Zrotation Yrotation Xrotation
				JOINT Spine2
				{
					OFFSET 0.006300 9.852501 -1.857000
					CHANNELS 3 Zrotation Yrotation Xrotation
					JOINT Spine2_Neck
					{
						OFFSET 0.000000 0.000000 0.000000
						CHANNELS 3 Zrotation Yrotation Xrotation
						JOINT Neck
						{
							OFFSET 0.016300 11.420799 -0.263300
							CHANNELS 3 Zrotation Yrotation Xrotation
							End Site #name: Head
							{
								OFFSET -0.019200 9.262405 2.362500
							}
						}
					}
					JOINT Spine2_LeftShoulder
					{
						OFFSET 0.000000 0.000000 0.000000
						CHANNELS 3 Zrotation Yrotation Xrotation
						JOINT LeftShoulder
						{
							OFFSET 5.616900 6.732201 -0.345700
							CHANNELS 3 Zrotation Yrotation Xrotation
							JOINT LeftArm
							{
								OFFSET 10.664888 -0.183372 -2.440700
								CHANNELS 3 Zrotation Yrotation Xrotation
								JOINT LeftForeArm
								{
									OFFSET 27.459126 0.000000 0.000000
									CHANNELS 3 Zrotation Yrotation Xrotation
									End Site #name: LeftHand
									{
										OFFSET 21.306858 0.000000 0.000000
									}
								}
							}
						}
					}
					JOINT Spine2_RightShoulder
					{
						OFFSET 0.000000 0.000000 0.000000
						CHANNELS 3 Zrotation Yrotation Xrotation
						JOINT RightShoulder
						{
							OFFSET -5.580300 6.737503 -0.344400
							CHANNELS 3 Zrotation Yrotation Xrotation
							JOINT RightArm
							{
								OFFSET -10.679335 -0.188484 -2.383900
								CHANNELS 3 Zrotation Yrotation Xrotation
								JOINT RightForeArm
								{
									OFFSET -27.503529 0.000000 0.000000
									CHANNELS 3 Zrotation Yrotation Xrotation
									End Site #name: RightHand
									{
										OFFSET -21.306808 0.000000 0.000000
									}
								}
							}
						}
					}
				}
			}
		}
	}
	JOINT Hips_LeftUpLeg
	{
		OFFSET 0.000000 0.000000 0.000000
		CHANNELS 3 Zrotation Yrotation Xrotation
		JOINT LeftUpLeg
		{
			OFFSET 6.857700 -6.739601 0.312100
			CHANNELS 3 Zrotation Yrotation Xrotation
			JOINT LeftLeg
			{
				OFFSET -0.367590 -34.731552 -4.572400
				CHANNELS 3 Zrotation Yrotation Xrotation
				End Site #name: LeftFoot
				{
					OFFSET 0.367590 -34.656704 -6.067400
				}
			}
		}
	}
	JOINT Hips_RightUpLeg
	{
		OFFSET 0.000000 0.000000 0.000000
		CHANNELS 3 Zrotation Yrotation Xrotation
		JOINT RightUpLeg
		{
			OFFSET -6.876100 -6.733299 0.301000
			CHANNELS 3 Zrotation Yrotation Xrotation
			JOINT RightLeg
			{
				OFFSET 0.347353 -34.795158 -4.515900
				CHANNELS 3 Zrotation Yrotation Xrotation
				End Site #name: RightFoot
				{
					OFFSET -0.347353 -34.589367 -6.070300
				}
			}
		}
	}
}
MOTION
Frames: 13
Frame Time: 0.041667
-0.099242 0.057838 0.038869 -3.782718 1.148939 -3.984945 -0.000000 0.000000 0.000000 -0.632707 0.790514 5.799956 -1.458512 1.332867 9.941431 0.000000 0.000000 0.000000 -1.813273 1.091694 9.458832 -0.779536 -3.845931 3.677952 -1.855094 1.095708 9.877659 -0.877142 -1.317590 0.173488 -68.841286 -24.219001 18.624604 155.450381 -87.915027 -155.963080 -1.506969 1.766995 10.807218 -4.891610 -0.445692 1.101209 77.326066 -1.486936 5.844480 172.397781 84.046697 174.379208 0.000000 -0.000000 0.000000 7.222372 1.312822 -19.077861 -1.551492 0.367794 33.493755 0.000000 0.000000 -0.000000 -4.388800 -2.456784 -15.335661 -0.377215 -2.033238 27.792156 
-0.044804 0.080632 0.189310 -4.767282 -2.203334 -3.465393 -0.000000 0.000000 0.000000 -0.658623 0.309273 5.637740 -2.023758 1.405810 10.403336 0.000000 0.000000 0.000000 -1.803552 1.397861 10.232602 -1.507068 -4.164631 5.005204 -1.986885 1.429618 10.489986 0.445011 1.062489 -0.291914 -68.529094 -22.052038 29.791033 178.601369 -83.652795 -178.739994 -1.789013 1.181110 10.087626 -5.342885 -2.577105 0.706023 83.313829 -8.360351 5.526168 -171.936260 86.655399 -171.944030 0.000000 -0.000000 0.000000 7.644728 0.434926 -22.544242 -0.755705 0.865171 32.493859 0.000000 0.000000 -0.000000 -3.210811 -3.519742 -15.955533 0.993025 -0.777999 27.139748 
0.128547 0.090161 0.197240 -4.677154 -5.464505 -2.933956 -0.000000 0.000000 0.000000 -0.704392 0.368969 5.489491 -2.256687 1.430882 10.534857 0.000000 0.000000 0.000000 -2.147332 1.602206 10.854908 -1.602747 -3.739143 4.672170 -1.888958 1.560571 10.479375 0.808052 0.491056 -0.257801 -70.007464 -17.700274 32.520457 -178.556332 -81.902211 178.413045 -1.985849 1.384379 10.061116 -4.079684 -2.104384 0.755513 81.987495 -8.669109 8.944602 -168.264187 86.898178 -168.423079 0.000000 -0.000000 0.000000 8.008719 1.147310 -22.877139 -0.872694 0.378712 34.423152 0.000000 0.000000 0.000000 -2.868752 -3.502472 -16.579492 0.724473 -1.045045 26.336720 
0.260586 0.074247 0.197747 -4.434685 -6.930981 -2.666662 -0.000000 -0.000000 0.000000 -0.572542 0.599406 5.185747 -2.121202 1.586097 10.363408 0.000000 0.000000 0.000000 -2.017079 1.696822 10.360452 -1.720448 -3.928457 5.061036 -1.947982 1.655815 10.440367 1.493019 0.268478 -0.050533 -70.682846 -16.953329 32.791409 -178.293107 -81.658136 178.178722 -2.061274 1.562477 9.947511 -4.053893 -1.164628 1.150505 79.849750 -7.964328 10.066757 -168.202312 85.243604 -168.586660 0.000000 -0.000000 0.000000 7.613144 1.360292 -23.233427 -1.126203 0.376440 34.846259 0.000000 0.000000 0.000000 -2.437129 -3.180663 -17.310155 0.539763 -0.631424 26.447736 
0.337101 0.072893 0.258059 -4.511374 -7.012720 -2.537411 -0.000000 -0.000000 0.000000 -0.513999 0.686944 5.074668 -1.940433 1.571271 9.984810 0.000000 0.000000 0.000000 -1.948910 1.654144 9.964639 -1.625820 -3.953427 5.262459 -1.939998 1.648264 10.173418 1.658095 0.225619 0.143679 -70.920585 -17.745675 31.843370 -176.596842 -83.248199 176.725001 -2.044668 1.578337 9.918971 -4.296548 -1.681649 1.351785 79.466992 -8.378816 9.008528 -164.604440 85.598411 -165.181389 0.000000 -0.000000 0.000000 7.111245 1.383707 -22.972803 -1.194454 0.536399 34.264491 0.000000 0.000000 0.000000 -2.296405 -3.016685 -17.608965 0.598176 -0.445323 26.132073 
0.427876 0.067154 0.313023 -4.678263 -6.368190 -2.585218 -0.000000 -0.000000 0.000000 -0.520055 0.716585 5.009005 -1.850876 1.516440 9.678025 0.000000 0.000000 0.000000 -1.871008 1.544158 9.744943 -1.406946 -3.771848 5.239103 -1.911640 1.570907 9.895815 1.694520 0.435958 0.223408 -71.200153 -18.492718 30.641702 -174.146757 -84.117906 174.435807 -2.000126 1.535037 9.869721 -4.677905 -2.254863 1.404629 79.937084 -8.632044 7.540794 -164.010537 85.737709 -164.572898 0.000000 -0.000000 0.000000 6.796405 1.373160 -22.769960 -1.269670 0.639446 33.940987 -0.000000 -0.000000 0.000000 -2.464423 -2.965063 -17.382279 0.414436 -0.579395 25.715387 
0.534577 0.077227 0.378308 -4.836861 -5.933213 -2.569483 -0.000000 -0.000000 0.000000 -0.553399 0.730669 4.915843 -1.812703 1.509404 9.653995 0.000000 0.000000 0.000000 -1.853268 1.464039 9.705553 -1.138010 -3.607206 5.227889 -1.885269 1.500870 9.716695 1.685422 0.656500 0.223412 -71.280731 -19.051432 29.382245 -174.303024 -84.005717 174.487606 -1.918299 1.489129 9.797951 -4.599549 -2.469364 1.288585 80.340460 -8.794462 7.014986 -166.060245 85.524216 -166.504454 0.000000 -0.000000 0.000000 6.541344 1.223911 -22.449510 -1.257489 0.643182 33.739418 -0.000000 -0.000000 0.000000 -2.903680 -2.980692 -16.963928 0.329369 -0.754853 25.349257 
0.649332 0.107749 0.459519 -4.939423 -5.728370 -2.458723 -0.000000 -0.000000 0.000000 -0.576447 0.701123 4.890154 -1.797830 1.516192 9.695886 0.000000 0.000000 0.000000 -1.854706 1.430715 9.766928 -0.862875 -3.503157 5.155262 -1.848418 1.468192 9.674627 1.727805 0.694370 0.210626 -71.409411 -19.537916 28.667912 -175.195742 -83.847648 175.253678 -1.826579 1.468431 9.746428 -4.366408 -2.344114 1.177229 80.358713 -9.059329 6.680072 -168.249167 85.279546 -168.561519 0.000000 -0.000000 0.000000 6.378647 1.213869 -22.318160 -1.174795 0.597386 33.838751 -0.000000 -0.000000 0.000000 -3.290361 -3.009651 -16.613840 0.334378 -0.855011 25.203010 
0.773030 0.140657 0.529498 -4.959764 -5.541286 -2.289326 -0.000000 -0.000000 0.000000 -0.556758 0.669413 4.883703 -1.777758 1.532418 9.786659 0.000000 0.000000 0.000000 -1.842123 1.431942 9.814403 -0.507727 -3.160188 5.023768 -1.804566 1.460297 9.703957 1.854505 0.668990 0.218423 -71.694340 -19.565367 28.691534 -176.072182 -83.813730 176.031914 -1.735606 1.469723 9.750188 -4.242814 -2.239050 1.108469 79.917807 -8.958297 6.814635 -170.130161 85.090806 -170.342107 0.000000 -0.000000 0.000000 6.292830 1.240246 -22.244972 -1.134068 0.514849 34.030234 -0.000000 -0.000000 0.000000 -3.486643 -2.961967 -16.432654 0.399182 -0.902690 25.234306 
0.902516 0.163967 0.575500 -4.927283 -5.544212 -2.188079 -0.000000 -0.000000 0.000000 -0.518749 0.641684 4.895533 -1.746718 1.551988 9.856707 0.000000 0.000000 0.000000 -1.812203 1.446977 9.827251 -0.136758 -2.671747 4.722367 -1.758728 1.469143 9.738867 2.102020 0.661329 0.237733 -72.014850 -19.397421 28.987019 -176.813347 -84.003627 176.702465 -1.660352 1.477401 9.758820 -4.129731 -2.158934 1.099487 79.437100 -8.721290 7.113697 -171.096679 85.068704 -171.262774 0.000000 -0.000000 0.000000 6.272817 1.240726 -22.149233 -1.128102 0.426337 34.106719 -0.000000 -0.000000 0.000000 -3.545638 -2.889050 -16.353145 0.459688 -0.926531 25.245492 
1.034861 0.177102 0.601459 -4.822676 -5.743126 -2.129321 -0.000000 -0.000000 0.000000 -0.488577 0.614020 4.921373 -1.697166 1.548664 9.810117 0.000000 0.000000 0.000000 -1.748128 1.460543 9.776091 0.258059 -2.007685 4.229664 -1.704317 1.478212 9.746876 2.352016 0.674147 0.268672 -72.388775 -19.056899 29.470261 -177.450012 -84.195848 177.316938 -1.601115 1.479566 9.741919 -4.138226 -2.054538 1.124393 79.190178 -8.493537 7.314935 -171.720203 85.067374 -171.876731 0.000000 -0.000000 0.000000 6.276749 1.264990 -22.061195 -1.137084 0.361967 34.102432 -0.000000 -0.000000 0.000000 -3.544142 -2.811867 -16.266681 0.438823 -0.972809 25.077096 
1.166785 0.188548 0.622875 -4.731114 -6.020030 -2.070229 -0.000000 -0.000000 0.000000 -0.460080 0.590420 4.897933 -1.634214 1.533180 9.729910 0.000000 0.000000 0.000000 -1.668847 1.471851 9.730152 0.653005 -1.342901 3.805587 -1.646096 1.476062 9.728352 2.584328 0.725857 0.310723 -72.799912 -18.641839 29.958519 -177.866991 -84.180315 177.758800 -1.549218 1.473330 9.699726 -4.178910 -1.937913 1.152234 79.154267 -8.404301 7.399607 -172.241333 85.003773 -172.413000 0.000000 -0.000000 0.000000 6.252018 1.297766 -21.969594 -1.136761 0.328826 33.983634 -0.000000 -0.000000 0.000000 -3.519992 -2.720790 -16.171619 0.391630 -1.006964 24.764621 
1.297412 0.203131 0.649081 -4.666042 -6.309579 -2.000214 -0.000000 -0.000000 0.000000 -0.434952 0.585987 4.863887 -1.564899 1.512427 9.644458 0.000000 0.000000 0.000000 -1.592537 1.475980 9.690524 1.002261 -0.727065 3.461677 -1.586822 1.468742 9.696723 2.780293 0.818879 0.356294 -73.209056 -18.308398 30.327225 -177.980992 -84.225491 177.904208 -1.504790 1.460003 9.630184 -4.261061 -1.892549 1.179148 79.247887 -8.441624 7.359894 -172.803015 84.810719 -172.990960 0.000000 -0.000000 0.000000 6.185632 1.332632 -21.929461 -1.134640 0.313597 33.835668 -0.000000 -0.000000 0.000000 -3.494563 -2.632702 -16.075027 0.351325 -1.002078 24.405312 
